HIERARCHY
ROOT Hips
{
	OFFSET 0.00 0.00 0.00
	CHANNELS 6 Xposition Yposition Zposition Xrotation Yrotation Zrotation
	JOINT Spine
	{
		OFFSET 0.00000 1.72418 2.58627
		CHANNELS 3 Xrotation Yrotation Zrotation
		JOINT Spine1
		{
			OFFSET 0.00000 0.59880 3.39597
			CHANNELS 3 Xrotation Yrotation Zrotation
			JOINT Spine2
			{
				OFFSET 0.00000 0.30055 3.43524
				CHANNELS 3 Xrotation Yrotation Zrotation
				JOINT Spine3
				{
					OFFSET 0.00000 0.00000 3.44836
					CHANNELS 3 Xrotation Yrotation Zrotation
					JOINT Neck
					{
						OFFSET 0.00000 -1.29313 9.05195
						CHANNELS 3 Xrotation Yrotation Zrotation
						JOINT Head
						{
							OFFSET 0.00000 -0.82335 4.66946
							CHANNELS 3 Xrotation Yrotation Zrotation
							End Site
							{
								OFFSET 0.00000 0.00001 5.58203
							}
						}
					}
					JOINT RightShoulder
					{
						OFFSET -1.18828 -1.98046 6.41673
						CHANNELS 3 Xrotation Yrotation Zrotation
						JOINT RightArm
						{
							OFFSET -5.90180 0.00000 0.00000
							CHANNELS 3 Xrotation Yrotation Zrotation
							JOINT RightForeArm
							{
								OFFSET -11.45951 0.00000 0.00000
								CHANNELS 3 Xrotation Yrotation Zrotation
								JOINT RightHand
								{
									OFFSET -10.63451 0.00000 0.00000
									CHANNELS 3 Xrotation Yrotation Zrotation
									JOINT RightHandEnd
									{
										OFFSET -2.86944 0.00000 0.00000
										CHANNELS 3 Xrotation Yrotation Zrotation
										End Site
										{
											OFFSET -2.86944 0.00000 0.00000
										}
									}
									JOINT RightHandThumb1
									{
										OFFSET -1.14778 -1.91296 -0.76518
										CHANNELS 3 Yrotation Xrotation Zrotation
										End Site
										{
											OFFSET -2.77167 -0.74267 0.00000
										}
									}
								}
							}
						}
					}
					JOINT LeftShoulder
					{
						OFFSET 1.18828 -1.98046 6.41673
						CHANNELS 3 Xrotation Yrotation Zrotation
						JOINT LeftArm
						{
							OFFSET 5.90180 0.00000 0.00000
							CHANNELS 3 Xrotation Yrotation Zrotation
							JOINT LeftForeArm
							{
								OFFSET 11.45951 0.00000 0.00000
								CHANNELS 3 Xrotation Yrotation Zrotation
								JOINT LeftHand
								{
									OFFSET 10.63451 0.00000 0.00000
									CHANNELS 3 Xrotation Yrotation Zrotation
									JOINT LeftHandEnd
									{
										OFFSET 2.86944 0.00000 0.00000
										CHANNELS 3 Xrotation Yrotation Zrotation
										End Site
										{
											OFFSET 2.86944 0.00000 0.00000
										}
									}
									JOINT LeftHandThumb1
									{
										OFFSET 1.14778 -1.91296 -0.76518
										CHANNELS 3 Yrotation Xrotation Zrotation
										End Site
										{
											OFFSET 2.77167 -0.74267 0.00000
										}
									}
								}
							}
						}
					}
				}
			}
		}
	}
	JOINT RightUpLeg
	{
		OFFSET -3.52524 0.00000 -1.02984
		CHANNELS 3 Xrotation Yrotation Zrotation
		JOINT RightLeg
		{
			OFFSET 0.00001 0.00000 -17.80965
			CHANNELS 3 Xrotation Yrotation Zrotation
			JOINT RightFoot
			{
				OFFSET 0.00001 0.00000 -17.00908
				CHANNELS 3 Xrotation Yrotation Zrotation
				JOINT RightToeBase
				{
					OFFSET 0.00000 -5.55853 -2.02314
					CHANNELS 3 Xrotation Yrotation Zrotation
					End Site
					{
						OFFSET 0.00000 -2.85188 -0.00000
					}
				}
			}
		}
	}
	JOINT LeftUpLeg
	{
		OFFSET 3.52524 0.00000 -1.02984
		CHANNELS 3 Xrotation Yrotation Zrotation
		JOINT LeftLeg
		{
			OFFSET 0.00001 0.00000 -17.80965
			CHANNELS 3 Xrotation Yrotation Zrotation
			JOINT LeftFoot
			{
				OFFSET 0.00001 0.00000 -17.00908
				CHANNELS 3 Xrotation Yrotation Zrotation
				JOINT LeftToeBase
				{
					OFFSET 0.00000 -5.55853 -2.02314
					CHANNELS 3 Xrotation Yrotation Zrotation
					End Site
					{
						OFFSET 0.00000 -2.85188 -0.00000
					}
				}
			}
		}
	}
}
MOTION
Frames: 12
Frame Time: 0.008342
 0.1345 -1.0844 36.0251 -0.3818 6.4415 -170.2723 1.1192 6.8324 -1.5994 0.3464 0.5109 -0.1265 4.7218 -2.0587 -3.4586 1.0648 -0.3591 0.0303 -2.9654 -2.9271 -3.3951 -1.0682 1.6758 -1.3507 18.0448 -13.5237 -6.3831 12.8168 -53.7080 14.2515 -0.0001 0.0001 115.8319 41.4312 24.5723 -6.8619 -0.0000 0.0000 -0.0000 -0.0000 -0.0000 0.0000 24.0715 5.2565 -1.1652 2.6311 49.8848 -6.2852 -0.0001 -0.0000 -119.6422 38.5345 -13.9998 -4.9332 0.0000 -0.0000 0.0000 0.0000 0.0000 -0.0000 -29.9328 7.2511 -18.9424 25.6894 0.0000 0.0000 -0.4769 10.1546 -0.5442 1.9558 0.0000 0.0000 12.2858 7.3271 3.4323 20.7257 0.0000 0.0000 -19.6951 2.3972 -0.6102 -11.5538 0.0000 -0.0000
 0.1797 -0.7170 36.0881 -0.4206 6.1493 -170.3325 1.0525 6.6790 -1.5489 0.3170 0.5225 -0.1268 4.6464 -2.1819 -3.4906 1.0266 -0.3808 0.0384 -3.0487 -2.9970 -3.3867 -0.9952 1.6664 -1.2602 17.6960 -13.4266 -6.4819 9.5233 -53.1452 11.2812 -0.0001 0.0001 117.0874 41.2239 24.1423 -7.2257 -0.0000 -0.0000 -0.0000 -0.0000 -0.0000 -0.0000 23.7813 5.2362 -1.0931 -0.9363 49.2651 -3.1405 -0.0001 -0.0000 -120.4775 38.2046 -14.1745 -4.7047 -0.0000 -0.0000 0.0000 -0.0000 0.0000 0.0000 -29.7528 6.6161 -17.7911 26.1141 0.0000 0.0000 -0.9141 9.9301 -1.9291 2.3294 0.0000 0.0000 12.3357 6.8449 3.2527 21.3688 0.0000 0.0000 -18.5253 2.8562 -0.6114 -13.0941 0.0000 -0.0000
 0.2242 -0.3432 36.1600 -0.4354 5.8626 -170.3857 0.9837 6.5350 -1.5055 0.2940 0.5114 -0.1351 4.5683 -2.2801 -3.5305 0.9932 -0.4051 0.0493 -3.1029 -3.0630 -3.3751 -0.9100 1.6577 -1.1596 17.3475 -13.2596 -6.6158 6.0064 -52.4770 8.2167 -0.0001 0.0001 118.1932 40.9716 23.6671 -7.6308 -0.0000 -0.0000 -0.0000 -0.0000 0.0000 -0.0000 23.5130 5.1851 -1.0107 -4.6907 48.4815 0.0850 -0.0001 -0.0000 -121.1702 37.7953 -14.3587 -4.4873 0.0000 -0.0000 0.0000 -0.0000 -0.0000 -0.0000 -29.4959 6.0158 -16.8022 26.5119 0.0000 0.0000 -1.3194 9.5716 -3.1160 2.5597 0.0000 0.0000 12.3814 6.3449 3.0647 22.0434 0.0000 0.0000 -17.1808 3.3753 -0.7122 -14.7808 0.0000 -0.0000
 0.2676 0.0369 36.2386 -0.4337 5.5863 -170.4165 0.9088 6.3922 -1.4716 0.2713 0.5069 -0.1434 4.4866 -2.3709 -3.5862 0.9654 -0.4298 0.0535 -3.1196 -3.1244 -3.3567 -0.8124 1.6524 -1.0552 16.9865 -13.0177 -6.7713 2.3359 -51.6816 5.0899 -0.0001 0.0001 119.1270 40.6754 23.1880 -8.0623 -0.0000 0.0000 -0.0000 -0.0000 -0.0000 -0.0000 23.2749 5.0996 -0.9102 -8.5355 47.5080 3.2844 -0.0001 -0.0000 -121.6831 37.3003 -14.5848 -4.2931 -0.0000 0.0000 0.0000 0.0000 0.0000 -0.0000 -29.1562 5.4660 -16.0190 26.8679 0.0000 0.0000 -1.7255 9.1622 -4.0583 2.6579 0.0000 0.0000 12.4211 5.8307 2.8614 22.7372 0.0000 0.0000 -15.6698 3.9330 -0.9245 -16.6065 0.0000 -0.0000
 0.3097 0.4231 36.3218 -0.4202 5.3184 -170.4141 0.8243 6.2457 -1.4500 0.2493 0.5146 -0.1484 4.3979 -2.4590 -3.6618 0.9395 -0.4517 0.0524 -3.0887 -3.1800 -3.3349 -0.7058 1.6517 -0.9517 16.6200 -12.7079 -6.9492 -1.4030 -50.7298 1.9759 -0.0001 0.0001 119.8623 40.3431 22.7649 -8.5121 0.0000 -0.0000 0.0000 0.0000 -0.0000 0.0000 23.0525 4.9755 -0.8007 -12.3622 46.3295 6.3761 -0.0001 -0.0000 -121.9891 36.7222 -14.8766 -4.1424 -0.0000 0.0000 0.0000 -0.0000 0.0000 0.0000 -28.7287 4.9705 -15.4705 27.1641 0.0000 0.0000 -2.1522 8.7769 -4.7365 2.6427 0.0000 0.0000 12.4537 5.2966 2.6516 23.4399 0.0000 0.0000 -14.0080 4.5007 -1.2666 -18.5523 0.0000 -0.0000
 0.3503 0.8148 36.4074 -0.3977 5.0591 -170.3702 0.7337 6.1015 -1.4372 0.2258 0.5161 -0.1567 4.2966 -2.5300 -3.7558 0.9175 -0.4746 0.0480 -3.0110 -3.2232 -3.3117 -0.5875 1.6543 -0.8568 16.2377 -12.3368 -7.1500 -5.1152 -49.5978 -1.0604 -0.0001 0.0001 120.3843 39.9861 22.4468 -8.9707 0.0000 -0.0000 0.0000 -0.0000 0.0000 0.0000 22.8400 4.8162 -0.6918 -16.0699 44.9390 9.2715 -0.0001 -0.0000 -122.0664 36.0784 -15.2548 -4.0417 -0.0000 -0.0000 -0.0000 0.0000 0.0000 -0.0000 -28.2138 4.5324 -15.1672 27.3889 0.0000 0.0000 -2.6127 8.4720 -5.1558 2.5385 0.0000 0.0000 12.4790 4.7427 2.4361 24.1426 0.0000 0.0000 -12.2166 5.0424 -1.7414 -20.5913 0.0000 -0.0000
 0.3895 1.2106 36.4934 -0.3764 4.8021 -170.2803 0.6310 5.9496 -1.4319 0.1995 0.5207 -0.1645 4.1817 -2.5918 -3.8690 0.8960 -0.4955 0.0389 -2.8872 -3.2547 -3.2908 -0.4600 1.6619 -0.7730 15.8324 -11.9210 -7.3667 -8.7142 -48.2612 -3.9594 -0.0001 0.0001 120.6838 39.6104 22.2759 -9.4216 0.0000 0.0000 0.0000 0.0000 0.0000 -0.0000 22.6180 4.6266 -0.5907 -19.5635 43.3430 11.9021 -0.0001 -0.0000 -121.9019 35.3929 -15.7263 -4.0033 0.0000 -0.0000 0.0000 -0.0000 0.0000 0.0000 -27.6258 4.1450 -15.1043 27.5345 0.0000 0.0000 -3.1116 8.2796 -5.3429 2.3724 0.0000 0.0000 12.4840 4.1641 2.2221 24.8446 0.0000 0.0000 -10.3264 5.5185 -2.3478 -22.6858 0.0000 -0.0000
 0.4272 1.6082 36.5778 -0.3768 4.5408 -170.1449 0.5007 5.7847 -1.4332 0.1700 0.5305 -0.1667 4.0526 -2.6460 -4.0065 0.8734 -0.5153 0.0329 -2.7228 -3.2710 -3.2751 -0.3268 1.6731 -0.7038 15.4004 -11.4756 -7.5900 -12.1305 -46.7054 -6.6710 -0.0001 0.0001 120.7569 39.2243 22.2821 -9.8494 0.0000 -0.0000 0.0000 -0.0000 0.0000 -0.0000 22.3707 4.4192 -0.5085 -22.7752 41.5529 14.2179 -0.0001 -0.0000 -121.4911 34.6920 -16.2856 -4.0324 0.0000 -0.0000 0.0000 -0.0000 0.0000 0.0000 -26.9981 3.7987 -15.2561 27.6019 0.0000 0.0000 -3.6476 8.2065 -5.3429 2.1716 0.0000 0.0000 12.4402 3.5619 2.0128 25.5552 0.0000 0.0000 -8.3749 5.8922 -3.0694 -24.7892 0.0000 -0.0000
 0.4633 2.0071 36.6594 -0.3671 4.2719 -169.9717 0.3851 5.6033 -1.4358 0.1408 0.5404 -0.1804 3.8976 -2.7037 -4.1339 0.8485 -0.5245 0.0102 -2.5261 -3.2720 -3.2619 -0.1890 1.6876 -0.6507 14.9403 -11.0132 -7.8061 -15.3104 -44.9227 -9.1544 -0.0001 0.0001 120.6034 38.8309 22.4748 -10.2366 -0.0000 -0.0000 0.0000 0.0000 -0.0000 -0.0000 22.0957 4.2074 -0.4363 -25.6655 39.5957 16.1681 -0.0001 -0.0000 -120.8304 34.0004 -16.9186 -4.1304 0.0000 -0.0000 -0.0000 -0.0000 -0.0000 -0.0000 -26.3079 3.4782 -15.5988 27.5930 0.0000 0.0000 -4.2207 8.2383 -5.1984 1.9616 0.0000 0.0000 12.3819 2.9313 1.8157 26.2696 0.0000 0.0000 -6.3954 6.1343 -3.8879 -26.8489 0.0000 -0.0000
 0.4979 2.4038 36.7365 -0.3857 3.9864 -169.7700 0.2477 5.3977 -1.4398 0.1083 0.5484 -0.1888 3.7275 -2.7531 -4.2713 0.8196 -0.5311 -0.0068 -2.3104 -3.2559 -3.2569 -0.0528 1.7036 -0.6149 14.4489 -10.5535 -8.0076 -18.2273 -42.9069 -11.3822 -0.0001 0.0001 120.2209 38.4297 22.8469 -10.5625 -0.0000 -0.0000 0.0000 0.0000 -0.0000 0.0000 21.7712 4.0062 -0.3935 -28.2255 37.4880 17.7588 -0.0001 -0.0000 -119.9271 33.3323 -17.5928 -4.2967 -0.0000 0.0000 0.0000 0.0000 0.0000 -0.0000 -25.6178 3.1688 -16.0804 27.5228 0.0000 0.0000 -4.8192 8.3415 -4.9684 1.7638 0.0000 0.0000 12.2537 2.2780 1.6357 27.0149 0.0000 0.0000 -4.4333 6.2253 -4.7724 -28.8047 0.0000 -0.0000
 0.5308 2.7958 36.8081 -0.4369 3.6829 -169.5538 0.0893 5.1675 -1.4405 0.0755 0.5556 -0.1928 3.5420 -2.8006 -4.4082 0.7859 -0.5330 -0.0210 -2.0894 -3.2224 -3.2575 0.0762 1.7201 -0.5963 13.9323 -10.1095 -8.1823 -20.8768 -40.6605 -13.3322 -0.0001 0.0001 119.6004 38.0139 23.3738 -10.8053 -0.0000 -0.0000 -0.0000 -0.0000 -0.0000 0.0000 21.3917 3.8352 -0.3780 -30.4715 35.2504 18.9862 -0.0001 -0.0001 -118.7827 32.6900 -18.2699 -4.5226 0.0000 0.0000 -0.0000 -0.0000 0.0000 0.0000 -24.9531 2.8600 -16.6516 27.4096 0.0000 0.0000 -5.4327 8.4758 -4.7004 1.5945 0.0000 0.0000 12.0428 1.6104 1.4762 27.8076 0.0000 0.0000 -2.5239 6.1609 -5.6895 -30.5945 0.0000 -0.0000
 0.5618 3.1833 36.8743 -0.4728 3.3601 -169.3409 -0.0349 4.9072 -1.4400 0.0423 0.5477 -0.2057 3.3398 -2.8427 -4.5106 0.7472 -0.5255 -0.0363 -1.8745 -3.1705 -3.2650 0.1958 1.7349 -0.5954 13.3939 -9.6846 -8.3248 -23.2712 -38.1984 -15.0002 -0.0001 0.0001 118.7274 37.5700 24.0071 -10.9422 0.0000 0.0000 -0.0000 0.0000 0.0000 -0.0000 20.9693 3.7008 -0.3879 -32.4492 32.9158 19.8543 -0.0001 -0.0001 -117.3898 32.0622 -18.9125 -4.7962 0.0000 0.0000 -0.0000 -0.0000 -0.0000 -0.0000 -24.2764 2.5318 -17.2692 27.2639 0.0000 0.0000 -6.0505 8.6016 -4.4330 1.4651 0.0000 0.0000 11.8003 0.9273 1.3408 28.6494 0.0000 0.0000 -0.6914 5.9520 -6.6062 -32.1547 0.0000 -0.0000
